<svg width="156" height="109" viewBox="0 0 156 109" fill="none" xmlns="http://www.w3.org/2000/svg">
<g filter="url(#filter0_b_1_13)">
<path d="M9.59313 16.1062C-5.5161 -3.41257 18.6587 -7.23978 18.6587 16.1062C18.6587 39.4521 62.4037 40.2176 47.2944 32.1804C32.1851 24.1432 32.1851 11.5135 47.2944 19.5506C62.4037 27.5878 69.3109 20.316 52.7625 11.5135C36.2142 2.71099 85.3656 -8.52066 82.4632 11.5134C79.5609 31.5474 114.639 -20.6349 128.741 27.5878C128.741 27.5878 177.666 54.1868 144.426 54.1868C111.185 54.1868 105.573 52.2733 118.668 76.3846C131.763 100.496 118.668 97.0515 118.668 97.0515C124.28 106.428 83.9884 111.786 98.666 106.428C98.666 106.428 100.249 52.2732 86.5786 81.7427C72.9083 111.212 51.3236 88.4402 62.4037 68.3475C73.4838 48.2547 52.7625 59.5449 49.7407 81.7427C46.7188 103.94 36.7899 97.0515 36.7899 97.0515C36.7899 97.0515 2.11041 107.194 14.6295 81.7427C27.1487 56.2917 62.4037 54.1868 62.4037 46.9152C62.4038 39.6435 31.1778 40.7916 9.59316 54.1868C-11.9914 67.582 9.59313 27.5878 9.59313 27.5878C9.59313 27.5878 24.7024 35.6249 9.59313 16.1062Z" fill="url(#paint0_radial_1_13)"/>
</g>
<g filter="url(#filter1_b_1_13)">
<path d="M33.6073 22.3257C22.4701 7.93816 40.2896 5.11708 40.2896 22.3257C40.2896 39.5343 72.5347 40.0985 61.3974 34.1742C50.2602 28.2499 50.2602 18.9404 61.3974 24.8647C72.5347 30.7889 77.626 25.4288 65.428 18.9404C53.2301 12.4519 89.4602 4.17292 87.3208 18.9403C85.1815 33.7076 111.038 -4.75667 121.433 30.7889C121.433 30.7889 157.496 50.3955 132.994 50.3955C108.492 50.3955 104.355 48.9849 114.008 66.7577C123.66 84.5306 114.008 81.9916 114.008 81.9916C118.144 88.9032 88.4451 92.8528 99.2641 88.9032C99.2641 88.9032 100.431 48.9849 90.3543 70.7072C80.2777 92.4296 64.3674 75.6441 72.5347 60.8334C80.702 46.0228 65.428 54.345 63.2006 70.7073C60.9731 87.0695 53.6544 81.9916 53.6544 81.9916C53.6544 81.9916 28.0917 89.4675 37.3197 70.7072C46.5477 51.947 72.5347 50.3955 72.5347 45.0354C72.5347 39.6754 49.5176 40.5217 33.6073 50.3955C17.697 60.2692 33.6073 30.7889 33.6073 30.7889C33.6073 30.7889 44.7445 36.7132 33.6073 22.3257Z" fill="url(#paint1_radial_1_13)"/>
</g>
<path d="M116.993 45.3123V38.6381C116.993 38.5443 117.757 38.216 119.285 37.6531C120.813 37.0768 121.69 36.7886 121.918 36.7886C122.146 36.7886 122.488 37.0634 122.943 37.6129C123.413 38.1623 123.647 38.6582 123.647 39.1005V46.3778C123.647 46.485 122.91 46.8268 121.436 47.4031C119.975 47.966 119.077 48.2474 118.742 48.2474C118.42 48.2474 118.045 47.9593 117.616 47.383C117.201 46.8067 116.993 46.1165 116.993 45.3123ZM120.431 46.3979C120.685 46.3979 120.947 46.2907 121.215 46.0763V40.1459C121.215 39.1541 120.873 38.6582 120.189 38.6582C119.921 38.6582 119.66 38.7587 119.405 38.9598V44.9103C119.405 45.902 119.747 46.3979 120.431 46.3979Z" fill="white"/>
<path d="M114.202 34.1552L113.82 45.2722C113.82 46.0897 114.477 46.1299 115.027 46.2371H115.812L112.996 48.2474C112.701 48.1268 112.427 47.9325 112.172 47.6644C111.917 47.383 111.79 47.1217 111.79 46.8804V35.7634C111.79 34.9459 111.515 34.4835 110.966 34.3763L110.966 33.7732L112.996 32.7881C113.291 32.9088 113.566 33.1098 113.82 33.3912C114.075 33.6593 114.202 33.9139 114.202 34.1552Z" fill="white"/>
<path d="M110.571 34.1552V45.2722C110.571 46.0897 110.845 46.5521 111.395 46.6593V47.1016L109.364 48.2474C109.07 48.1268 108.795 47.9325 108.54 47.6644C108.286 47.383 108.158 47.1217 108.158 46.8804V35.7634C108.158 34.9459 107.884 34.4835 107.334 34.3763H106.546L109.364 32.7881C109.659 32.9088 109.934 33.1098 110.189 33.3912C110.443 33.6593 110.571 33.9139 110.571 34.1552Z" fill="white"/>
<path d="M104.544 36.7886C104.611 36.7886 104.779 36.8959 105.047 37.1103C105.315 37.3113 105.583 37.5995 105.851 37.9747C106.119 38.3366 106.253 38.6917 106.253 39.0402V42.4175C106.253 42.6587 105.898 42.9536 105.187 43.302C104.477 43.6505 103.787 43.9386 103.117 44.1665C102.46 44.3809 102.105 44.4881 102.051 44.4881C102.051 45.5201 102.5 46.1567 103.398 46.3979C103.84 46.5051 105.636 46.6392 106.253 46.6392L104.986 47.1417C102.788 47.8788 101.616 48.2474 101.468 48.2474C101.066 48.2474 100.657 47.966 100.242 47.4031C99.8264 46.8268 99.6187 46.1567 99.6187 45.3928V38.6381C99.6187 38.5443 100.383 38.216 101.91 37.6531C103.438 37.0768 104.316 36.7886 104.544 36.7886ZM103.84 39.985C103.84 39.6098 103.753 39.2948 103.579 39.0402C103.405 38.7721 103.184 38.6381 102.916 38.6381C102.648 38.6381 102.353 38.7386 102.031 38.9397V43.5835C103.237 43.2484 103.84 42.5247 103.84 41.4123V39.985Z" fill="white"/>
<path d="M92.1779 36.1855L90.464 36.945L90.9083 39.2233L91.6701 44.2268L92.8763 47.8453L93.2783 48.396L95.2886 48.2474L95.8219 47.0412L98.1031 38.8436L97.2566 36.945L96.0928 34.1752V36.945L95.8219 38.5979L94.0825 47.0412L92.4742 37.3247L92.1779 36.1855Z" fill="white"/>
<path d="M88.9673 39.4423V45.1315C88.9673 45.6274 89.7915 46.8202 89.9523 47.0212C90.1131 47.2088 89.6173 46.4985 89.9523 46.5789V47.0212L87.7611 48.2475C87.4662 48.1269 87.1915 47.9325 86.9368 47.6645C86.6822 47.383 86.5549 47.1284 86.5549 46.9006L84.042 48.2475C84.0018 48.2207 83.9415 48.1872 83.8611 48.147C83.7807 48.0933 83.6399 47.9928 83.4389 47.8454C83.2513 47.6846 83.0838 47.5171 82.9363 47.3428C82.5343 46.9006 82.3332 46.398 82.3332 45.8351V42.5382C82.3332 42.3238 82.6817 42.049 83.3786 41.714C84.0755 41.3789 84.7724 41.1042 85.4693 40.8897L86.5348 40.548C86.5348 39.7841 86.3338 39.2547 85.9317 38.9598C85.5296 38.6516 84.7523 38.4975 83.5997 38.4975L80.8145 36.7887C82.8918 36.0515 86.843 36.7887 87.0977 36.7887C87.5399 36.7887 87.9621 37.0769 88.3642 37.6531C88.7662 38.2294 88.9673 38.8258 88.9673 39.4423ZM84.7456 45.1114C84.7456 45.4598 84.8461 45.748 85.0472 45.9758C85.2616 46.1903 85.4961 46.2975 85.7508 46.2975C86.0054 46.2975 86.2734 46.197 86.5549 45.9959V41.4526C86.2198 41.5732 85.9652 41.6738 85.791 41.7542C85.6301 41.8346 85.4559 41.9619 85.2683 42.1361C84.9198 42.4578 84.7456 43.014 84.7456 43.8047V45.1114Z" fill="white"/>
<path d="M74.748 38.8391L76.9594 37.633C77.0532 37.6598 77.1604 37.7 77.281 37.7536C77.415 37.7938 77.5893 37.9211 77.8037 38.1355C78.0315 38.35 78.1454 38.5912 78.1454 38.8592C78.2125 38.8324 78.5274 38.6247 79.0903 38.2361C79.6666 37.834 80.0351 37.633 80.196 37.633C80.6248 37.633 81.0269 37.9144 81.4021 38.4773C81.7774 39.0402 81.965 39.5562 81.965 40.0252V41.0103L79.8944 42.1763L79.5527 41.8948C79.5527 40.769 79.4454 40.1257 79.231 39.9649C78.9898 39.7907 78.6279 39.7036 78.1454 39.7036V46.1165C78.1454 46.934 78.4202 47.3964 78.9697 47.5036V47.9458L76.9594 53.1123C76.6645 52.9917 76.3697 48.7768 76.115 48.5087C75.8604 48.2273 75.7331 47.9659 75.7331 47.7247V41.0505C75.7331 40.4608 75.6259 40.0185 75.4114 39.7237C75.2104 39.4288 74.9893 39.2814 74.748 39.2814V38.8391Z" fill="white"/>
<path d="M70.4009 46.1969V35.5423L71.0241 34.9392H69.7576C68.9401 34.9392 68.4777 35.1604 68.3705 35.6026L61.9175 40.2062L66.7823 33.9542C66.9432 33.6995 67.1509 33.4717 67.4055 33.2707C67.6602 33.0696 67.9081 32.9691 68.1493 32.9691H73.4566C74.2741 32.9691 74.7365 32.748 74.8437 32.3057L82.4227 28.9485L76.4318 33.9542C76.271 34.2088 76.0633 34.4366 75.8086 34.6377C75.554 34.8387 75.306 34.9392 75.0648 34.9392H72.8133V45.1516C72.8133 45.6475 72.8669 46.0026 72.9741 46.2171C73.0813 46.4315 73.3024 46.5387 73.6375 46.5387V47.1619L69.5164 48.8908L69.1947 48.2475C69.4896 48.2475 69.771 48.0732 70.039 47.7248C70.2803 47.3897 70.4009 46.8805 70.4009 46.1969Z" fill="white"/>
<defs>
<filter id="filter0_b_1_13" x="-24.1237" y="-24.1237" width="204.247" height="156.804" filterUnits="userSpaceOnUse" color-interpolation-filters="sRGB">
<feFlood flood-opacity="0" result="BackgroundImageFix"/>
<feGaussianBlur in="BackgroundImageFix" stdDeviation="12.0619"/>
<feComposite in2="SourceAlpha" operator="in" result="effect1_backgroundBlur_1_13"/>
<feBlend mode="normal" in="SourceGraphic" in2="effect1_backgroundBlur_1_13" result="shape"/>
</filter>
<filter id="filter1_b_1_13" x="8.75416" y="-7.3283" width="150.554" height="115.582" filterUnits="userSpaceOnUse" color-interpolation-filters="sRGB">
<feFlood flood-opacity="0" result="BackgroundImageFix"/>
<feGaussianBlur in="BackgroundImageFix" stdDeviation="8.89095"/>
<feComposite in2="SourceAlpha" operator="in" result="effect1_backgroundBlur_1_13"/>
<feBlend mode="normal" in="SourceGraphic" in2="effect1_backgroundBlur_1_13" result="shape"/>
</filter>
<radialGradient id="paint0_radial_1_13" cx="0" cy="0" r="1" gradientUnits="userSpaceOnUse" gradientTransform="translate(78 54.2782) rotate(38.1863) scale(99.2361 125.747)">
<stop offset="0.15" stop-color="#1A99AE"/>
<stop offset="0.305" stop-color="#1ABFDA"/>
<stop offset="0.545" stop-color="#1D8596"/>
</radialGradient>
<radialGradient id="paint1_radial_1_13" cx="0" cy="0" r="1" gradientUnits="userSpaceOnUse" gradientTransform="translate(84.0309 50.4628) rotate(38.1863) scale(73.1482 92.6901)">
<stop offset="0.15" stop-color="#1A99AE"/>
<stop offset="0.305" stop-color="#1ABFDA"/>
<stop offset="0.545" stop-color="#1D8596"/>
</radialGradient>
</defs>
</svg>
